<svg xmlns="http://www.w3.org/2000/svg" width="120" height="120" viewBox="0 0 120 120" role="img" aria-label="DentaDo logo">
  <defs>
    <linearGradient id="g" x1="0" y1="0" x2="1" y2="1">
      <stop offset="0%" stop-color="#00b5ff"/>
      <stop offset="45%" stop-color="#0084ff"/>
      <stop offset="75%" stop-color="#6366f1"/>
      <stop offset="100%" stop-color="#8b5cf6"/>
    </linearGradient>
  </defs>
  <path d="M60 14c18 0 34 12 38 29 2 9 1 19-2 28-3 10-7 20-13 29-4 6-8 9-13 9-4 0-7-2-10-6-3 4-6 6-10 6-5 0-9-3-13-9-6-9-10-19-13-29-3-9-4-19-2-28C26 26 42 14 60 14Z" fill="url(#g)" stroke="#0f172a" stroke-width="4" stroke-linejoin="round"/>
  <path d="M44 52c4-6 11-10 16-10 6 0 12 4 16 10" fill="none" stroke="#fff" stroke-width="5" stroke-linecap="round"/>
  <circle cx="49" cy="46" r="4" fill="#fff"/>
  <circle cx="71" cy="46" r="4" fill="#fff"/>
  <text x="60" y="110" font-family="Poppins,Arial" font-size="18" text-anchor="middle" fill="#1f2937" font-weight="700">DentaDo</text>
</svg>